<svg width="16" height="16" viewBox="0 0 16 16" fill="none" xmlns="http://www.w3.org/2000/svg">
<path fill-rule="evenodd" clip-rule="evenodd" d="M2.43083 1.375C1.87359 1.375 1.375 1.86101 1.375 2.51995V14.0264C1.375 14.5192 1.93773 14.799 2.33019 14.5027L5.39417 12.1893C5.96328 11.7596 6.74826 11.7596 7.31736 12.1893L10.3813 14.5027C10.7738 14.799 11.3365 14.5192 11.3365 14.0264V2.39342C11.3365 2.01669 11.4434 1.67042 11.6273 1.375H2.43083ZM13.4808 0.375H2.43083C1.26955 0.375 0.375 1.36193 0.375 2.51995V14.0264C0.375 15.3439 1.8808 16.095 2.93275 15.3007L5.99673 12.9874C6.20925 12.8269 6.50229 12.8269 6.7148 12.9874L9.77879 15.3007C10.8307 16.095 12.3365 15.3439 12.3365 14.0264V6.30985H14.0288C14.9106 6.30985 15.625 5.59481 15.625 4.71322V2.39342C15.625 1.24194 14.6268 0.375 13.4808 0.375ZM12.3365 5.30985H14.0288C14.3579 5.30985 14.625 5.04293 14.625 4.71322V2.39342C14.625 1.86769 14.1509 1.375 13.4808 1.375C12.8106 1.375 12.3365 1.86769 12.3365 2.39342V5.30985Z" fill="#12B886" stroke="#12B886" stroke-width="0.5"/>
</svg>
