<svg width="18" height="18" viewBox="0 0 18 18" fill="none" xmlns="http://www.w3.org/2000/svg">
<path fill-rule="evenodd" clip-rule="evenodd" d="M9 2.04918C5.16117 2.04918 2.04918 5.16117 2.04918 9C2.04918 12.8388 5.16117 15.9508 9 15.9508C12.8388 15.9508 15.9508 12.8388 15.9508 9C15.9508 5.16117 12.8388 2.04918 9 2.04918ZM1 9C1 4.58172 4.58172 1 9 1C13.4183 1 17 4.58172 17 9C17 13.4183 13.4183 17 9 17C4.58172 17 1 13.4183 1 9ZM9 3.87514C9.28972 3.87514 9.52459 4.11001 9.52459 4.39973V9.32931L12.786 12.0472C13.0086 12.2326 13.0387 12.5634 12.8532 12.786C12.6677 13.0086 12.3369 13.0387 12.1144 12.8532L8.66416 9.97802C8.54456 9.87835 8.47541 9.7307 8.47541 9.57502V4.39973C8.47541 4.11001 8.71027 3.87514 9 3.87514Z" fill="#12B886" stroke="#12B886" stroke-width="0.5" stroke-linecap="round" stroke-linejoin="round"/>
</svg>
