<svg width="24" height="25" viewBox="0 0 24 25" fill="none" xmlns="http://www.w3.org/2000/svg">
<path d="M12 11.0912C11.7348 11.0912 11.4804 11.1966 11.2929 11.3841C11.1054 11.5717 11 11.826 11 12.0912V16.0912C11 16.3565 11.1054 16.6108 11.2929 16.7984C11.4804 16.9859 11.7348 17.0912 12 17.0912C12.2652 17.0912 12.5196 16.9859 12.7071 16.7984C12.8946 16.6108 13 16.3565 13 16.0912V12.0912C13 11.826 12.8946 11.5717 12.7071 11.3841C12.5196 11.1966 12.2652 11.0912 12 11.0912ZM12.38 7.17125C12.1365 7.07123 11.8635 7.07123 11.62 7.17125C11.4973 7.21884 11.3851 7.29021 11.29 7.38125C11.2017 7.47845 11.1306 7.59006 11.08 7.71125C11.024 7.82993 10.9966 7.96007 11 8.09125C10.9992 8.22285 11.0245 8.35332 11.0742 8.47515C11.124 8.59699 11.1973 8.70781 11.29 8.80125C11.3872 8.88958 11.4988 8.96061 11.62 9.01125C11.7715 9.07349 11.936 9.09756 12.099 9.08136C12.2619 9.06516 12.4184 9.00917 12.5547 8.91832C12.691 8.82747 12.8029 8.70453 12.8805 8.56032C12.9582 8.41611 12.9992 8.25503 13 8.09125C12.9963 7.82648 12.8927 7.57288 12.71 7.38125C12.6149 7.29021 12.5028 7.21884 12.38 7.17125ZM12 2.09125C10.0222 2.09125 8.08879 2.67774 6.4443 3.77655C4.79981 4.87537 3.51809 6.43715 2.76121 8.26441C2.00433 10.0917 1.8063 12.1023 2.19215 14.0422C2.578 15.982 3.53041 17.7638 4.92894 19.1623C6.32746 20.5608 8.10929 21.5132 10.0491 21.8991C11.9889 22.285 13.9996 22.0869 15.8268 21.33C17.6541 20.5732 19.2159 19.2914 20.3147 17.6469C21.4135 16.0025 22 14.0691 22 12.0912C22 10.778 21.7413 9.47767 21.2388 8.26441C20.7363 7.05116 19.9997 5.94877 19.0711 5.02018C18.1425 4.09159 17.0401 3.355 15.8268 2.85245C14.6136 2.34991 13.3132 2.09125 12 2.09125ZM12 20.0912C10.4178 20.0912 8.87104 19.6221 7.55544 18.743C6.23985 17.864 5.21447 16.6145 4.60897 15.1527C4.00347 13.6909 3.84504 12.0824 4.15372 10.5305C4.4624 8.97868 5.22433 7.55321 6.34315 6.43439C7.46197 5.31557 8.88743 4.55365 10.4393 4.24497C11.9911 3.93628 13.5997 4.09471 15.0615 4.70021C16.5233 5.30571 17.7727 6.33109 18.6518 7.64669C19.5308 8.96228 20 10.509 20 12.0912C20 14.213 19.1572 16.2478 17.6569 17.7481C16.1566 19.2484 14.1217 20.0912 12 20.0912Z" fill="#FF5247"/>
</svg>
