<svg width="80" height="80" viewBox="0 0 80 80" fill="none" xmlns="http://www.w3.org/2000/svg">
<circle cx="40" cy="40" r="40" fill="white"/>
<rect width="53.3333" height="53.3333" transform="translate(13.3333 13.333)" fill="white"/>
<path d="M55.5556 35.5552V39.9996C55.5556 44.1252 53.9167 48.0818 50.9995 50.9991C48.0822 53.9163 44.1256 55.5552 40 55.5552M40 55.5552C35.8744 55.5552 31.9178 53.9163 29.0006 50.9991C26.0833 48.0818 24.4445 44.1252 24.4445 39.9996V35.5552M40 55.5552V64.4441M31.1111 64.4441H48.8889M40 15.5552C38.2319 15.5552 36.5362 16.2576 35.286 17.5078C34.0357 18.758 33.3333 20.4537 33.3333 22.2218V39.9996C33.3333 41.7677 34.0357 43.4634 35.286 44.7137C36.5362 45.9639 38.2319 46.6663 40 46.6663C41.7681 46.6663 43.4638 45.9639 44.7141 44.7137C45.9643 43.4634 46.6667 41.7677 46.6667 39.9996V22.2218C46.6667 20.4537 45.9643 18.758 44.7141 17.5078C43.4638 16.2576 41.7681 15.5552 40 15.5552Z" stroke="#12B886" stroke-width="3" stroke-linecap="round" stroke-linejoin="round"/>
</svg>
