<svg width="18" height="24" viewBox="0 0 18 24" fill="none" xmlns="http://www.w3.org/2000/svg">
<path d="M9 3.27273V0L4.5 4.36364L9 8.72727V5.45455C12.7238 5.45455 15.75 8.38909 15.75 12C15.75 13.1018 15.4687 14.1491 14.9625 15.0545L16.605 16.6473C17.4825 15.3055 18 13.7127 18 12C18 7.17818 13.9725 3.27273 9 3.27273ZM9 18.5455C5.27625 18.5455 2.25 15.6109 2.25 12C2.25 10.8982 2.53125 9.85091 3.0375 8.94545L1.395 7.35273C0.5175 8.69455 0 10.2873 0 12C0 16.8218 4.0275 20.7273 9 20.7273V24L13.5 19.6364L9 15.2727V18.5455Z" fill="#979C9E"/>
</svg>
