<svg width="24" height="24" viewBox="0 0 24 24" fill="none" xmlns="http://www.w3.org/2000/svg">
<path fill-rule="evenodd" clip-rule="evenodd" d="M5.5 7.875C5.5 5.94201 7.067 4.375 9 4.375H15C16.933 4.375 18.5 5.942 18.5 7.875V11.8656C18.5 14.808 16.4777 17.2188 13.9087 18.7347C12.732 19.4291 11.268 19.4291 10.0913 18.7347C7.52225 17.2188 5.5 14.808 5.5 11.8656V7.875ZM9 5.375C7.61929 5.375 6.5 6.49429 6.5 7.875V11.8656C6.5 14.3146 8.19197 16.4529 10.5995 17.8735C11.4627 18.3828 12.5373 18.3828 13.4005 17.8735C15.808 16.4529 17.5 14.3146 17.5 11.8656V7.875C17.5 6.49429 16.3807 5.375 15 5.375H9ZM14.5046 9.33281C14.7155 9.51107 14.742 9.82655 14.5637 10.0374L11.8364 13.2639C11.7507 13.3653 11.6282 13.4284 11.4958 13.4394C11.3635 13.4503 11.2322 13.4082 11.131 13.3222L9.49463 11.9331C9.28412 11.7544 9.25834 11.4388 9.43705 11.2283C9.61577 11.0178 9.9313 10.992 10.1418 11.1707L11.3962 12.2356L13.8 9.39188C13.9783 9.18099 14.2937 9.15454 14.5046 9.33281Z" fill="black"/>
</svg>
