<svg width="20" height="20" viewBox="0 0 20 20" fill="none" xmlns="http://www.w3.org/2000/svg">
<path d="M17.6023 10.94C17.6434 10.64 17.664 10.33 17.664 10C17.664 9.68003 17.6434 9.36002 17.592 9.06002L19.679 7.48002C19.864 7.34002 19.9154 7.07002 19.8024 6.87002L17.8285 3.55002C17.7051 3.33002 17.4481 3.26002 17.2219 3.33002L14.7649 4.29002C14.2509 3.91002 13.706 3.59002 13.0994 3.35002L12.7293 0.810024C12.6882 0.570024 12.4826 0.400024 12.2359 0.400024H8.28812C8.04138 0.400024 7.84605 0.570024 7.80493 0.810024L7.43483 3.35002C6.82828 3.59002 6.27313 3.92002 5.76938 4.29002L3.31232 3.33002C3.08615 3.25002 2.82913 3.33002 2.70577 3.55002L0.742176 6.87002C0.618809 7.08002 0.659931 7.34002 0.865543 7.48002L2.9525 9.06002C2.9011 9.36002 2.85997 9.69002 2.85997 10C2.85997 10.31 2.88054 10.64 2.93194 10.94L0.844982 12.52C0.659931 12.66 0.608529 12.93 0.721615 13.13L2.69549 16.45C2.81885 16.67 3.07587 16.74 3.30204 16.67L5.7591 15.71C6.27313 16.09 6.818 16.41 7.42455 16.65L7.79465 19.19C7.84605 19.43 8.04138 19.6 8.28812 19.6H12.2359C12.4826 19.6 12.6882 19.43 12.719 19.19L13.0891 16.65C13.6957 16.41 14.2509 16.09 14.7546 15.71L17.2117 16.67C17.4378 16.75 17.6948 16.67 17.8182 16.45L19.7921 13.13C19.9154 12.91 19.864 12.66 19.6687 12.52L17.6023 10.94ZM10.262 13.6C8.22643 13.6 6.56098 11.98 6.56098 10C6.56098 8.02002 8.22643 6.40002 10.262 6.40002C12.2975 6.40002 13.963 8.02002 13.963 10C13.963 11.98 12.2975 13.6 10.262 13.6Z" fill="#979C9E"/>
</svg>
