<svg width="24" height="23" viewBox="0 0 24 23" fill="none" xmlns="http://www.w3.org/2000/svg">
<path d="M15.9231 7.72528C17.3943 8.55133 18.375 10.0329 18.375 11.7233C18.375 13.4137 17.3943 14.8953 15.9231 15.7213M15.4327 10.6062C15.727 10.8371 15.9231 11.2511 15.9231 11.7235C15.9231 12.1959 15.727 12.6099 15.4327 12.8408M5.625 12.7439V10.2561C5.625 9.46216 6.29657 8.81857 7.125 8.81857H7.30821C7.80304 8.81857 8.28031 8.63513 8.64775 8.3037L12.2071 5.09327C12.6858 4.66156 13.4712 4.98677 13.4712 5.61666V17.3834C13.4712 18.0133 12.6858 18.3385 12.2071 17.9068L8.64775 14.6963C8.28031 14.3649 7.80304 14.1814 7.3082 14.1814H7.125C6.29657 14.1814 5.625 13.5379 5.625 12.7439Z" stroke="#343A40" stroke-miterlimit="16" stroke-linecap="round" stroke-linejoin="bevel"/>
</svg>
