<svg width="24" height="23" viewBox="0 0 24 23" fill="none" xmlns="http://www.w3.org/2000/svg">
<path fill-rule="evenodd" clip-rule="evenodd" d="M12 5.1512C11.367 5.1512 10.8757 5.62748 10.8757 6.1894V6.80683L10.5695 6.93021C9.1113 7.51774 8.49918 8.96578 8.30109 9.59279C8.2569 9.73264 8.23184 9.88593 8.2127 10.0642L7.98292 12.2046C7.93263 12.6731 7.77996 13.1261 7.53486 13.5343L6.58276 15.1199C6.52785 15.2113 6.50899 15.2678 6.50497 15.3045C6.4843 15.4937 6.53026 15.6304 6.58863 15.7069C6.63643 15.7696 6.71584 15.826 6.87873 15.826H17.1213C17.2828 15.826 17.3619 15.7705 17.4095 15.7094C17.4674 15.635 17.514 15.5019 17.4963 15.3163C17.4925 15.2768 17.4717 15.2155 17.4092 15.1171L16.446 13.601C16.1599 13.1507 15.9886 12.642 15.946 12.1163L15.7846 10.1248C15.7665 9.90146 15.7373 9.707 15.6787 9.53039C15.4587 8.86763 14.8387 7.4976 13.4305 6.93021L13.1243 6.80683V6.1894C13.1243 5.62748 12.633 5.1512 12 5.1512ZM13.4443 16.7843H10.2773C10.4935 17.3972 11.1134 17.8491 11.8608 17.8491C12.6083 17.8491 13.2281 17.3972 13.4443 16.7843ZM9.24372 16.7843C9.48262 17.9444 10.5727 18.8074 11.8608 18.8074C13.149 18.8074 14.239 17.9444 14.4779 16.7843H17.1213C17.5805 16.7843 17.9642 16.5995 18.211 16.2824C18.4476 15.9786 18.5271 15.5955 18.4921 15.229C18.4682 14.9781 18.3592 14.7695 18.2634 14.6187L17.3001 13.1026C17.0957 12.7809 16.9734 12.4176 16.943 12.0421L16.7816 10.0506C16.761 9.79736 16.7243 9.51877 16.6316 9.23983C16.4054 8.55853 15.7355 6.98181 14.1243 6.18401C14.1212 5.07244 13.1592 4.19287 12 4.19287C10.8408 4.19287 9.87885 5.07244 9.87574 6.184C8.20639 7.01057 7.54668 8.67355 7.34399 9.31508C7.27264 9.54093 7.23962 9.76428 7.21795 9.96611L6.98817 12.1065C6.95225 12.4411 6.8432 12.7648 6.66813 13.0563L5.71603 14.6419C5.63151 14.7826 5.53552 14.975 5.51041 15.2047C5.46993 15.5751 5.54574 15.9636 5.7813 16.2725C6.02743 16.5952 6.41413 16.7843 6.87873 16.7843H9.24372Z" fill="#343A40"/>
</svg>
