<svg width="24" height="24" viewBox="0 0 24 24" fill="none" xmlns="http://www.w3.org/2000/svg">
<path fill-rule="evenodd" clip-rule="evenodd" d="M10.1092 4.375H15.375C16.8815 4.375 18.125 5.56822 18.125 7.06731L18.125 16.9327C18.125 18.4318 16.8815 19.625 15.375 19.625H8.625C7.11853 19.625 5.875 18.4318 5.875 16.9327L5.87502 8.50062L10.1092 4.375ZM10.375 5.51223L7.04215 8.75962H10.375V5.51223ZM6.87502 9.75962L6.875 16.9327C6.875 17.8552 7.64618 18.625 8.625 18.625H15.375C16.3538 18.625 17.125 17.8552 17.125 16.9327L17.125 7.06731C17.125 6.14484 16.3538 5.375 15.375 5.375H11.375V9.75962H6.87502ZM9.25002 13.0962C9.25002 12.82 9.47387 12.5962 9.75002 12.5962H14.25C14.5262 12.5962 14.75 12.82 14.75 13.0962C14.75 13.3723 14.5262 13.5962 14.25 13.5962H9.75002C9.47387 13.5962 9.25002 13.3723 9.25002 13.0962ZM9.25002 15.8365C9.25002 15.5604 9.47387 15.3365 9.75002 15.3365H12C12.2762 15.3365 12.5 15.5604 12.5 15.8365C12.5 16.1127 12.2762 16.3365 12 16.3365H9.75002C9.47387 16.3365 9.25002 16.1127 9.25002 15.8365Z" fill="black"/>
</svg>
